<svg width="68" height="68" viewBox="0 0 68 68" fill="none" xmlns="http://www.w3.org/2000/svg">
<path d="M34.0001 5.6665C26.5767 5.6665 20.5417 11.7015 20.5417 19.1248C20.5417 26.4065 26.2367 32.2998 33.6601 32.5548C33.8867 32.5265 34.1134 32.5265 34.2834 32.5548C34.3401 32.5548 34.3684 32.5548 34.4251 32.5548C34.4534 32.5548 34.4534 32.5548 34.4817 32.5548C41.7351 32.2998 47.4301 26.4065 47.4584 19.1248C47.4584 11.7015 41.4234 5.6665 34.0001 5.6665Z" fill="#C3FF45"/>
<path opacity="0.4" d="M48.3932 40.12C40.4882 34.85 27.5966 34.85 19.6349 40.12C16.0366 42.5 14.0532 45.7583 14.0532 49.2433C14.0532 52.7283 16.0366 55.9583 19.6066 58.3383C23.5732 61.0016 28.7866 62.3333 33.9999 62.3333C39.2132 62.3333 44.4266 61.0016 48.3932 58.3383C51.9632 55.93 53.9466 52.7 53.9466 49.1866C53.9182 45.73 51.9632 42.4716 48.3932 40.12Z" fill="#C3FF45"/>
<path d="M32.2156 54.5698C31.7622 54.5698 31.3089 54.3715 30.9689 54.0598L27.3989 50.4898C26.7189 49.8098 26.7189 48.6765 27.3989 47.9965C28.0789 47.3165 29.2122 47.3165 29.8922 47.9965L32.2156 50.3198L38.1089 44.4265C38.7889 43.7465 39.9222 43.7465 40.6022 44.4265C41.2822 45.1065 41.2822 46.2398 40.6022 46.9198L33.4623 54.0598C33.1223 54.3998 32.6689 54.5698 32.2156 54.5698Z" fill="white"/>
</svg>
