<svg width="24" height="24" viewBox="0 0 24 24" fill="none" xmlns="http://www.w3.org/2000/svg">
<path fill-rule="evenodd" clip-rule="evenodd" d="M11.6973 2.15204C11.8931 2.08213 12.107 2.08213 12.3027 2.15204L19.3027 4.65204C19.6609 4.77997 19.9 5.11926 19.9 5.49961V12.9996C19.9 15.8503 18.3318 18.0764 16.6571 19.5503C15.8144 20.2918 14.9201 20.8665 14.1256 21.2594C13.3681 21.6341 12.5893 21.8996 12 21.8996C11.4107 21.8996 10.6319 21.6341 9.87442 21.2594C9.07995 20.8665 8.1856 20.2918 7.34294 19.5503C5.66816 18.0764 4.10001 15.8503 4.10001 12.9996V5.49961C4.10001 5.11926 4.33911 4.77997 4.6973 4.65204L11.6973 2.15204ZM5.90001 6.13386V12.9996C5.90001 15.1489 7.08185 16.9228 8.53207 18.199C9.25191 18.8324 10.0138 19.3202 10.6725 19.646C11.3681 19.9901 11.8393 20.0996 12 20.0996C12.1607 20.0996 12.6319 19.9901 13.3275 19.646C13.9862 19.3202 14.7481 18.8324 15.4679 18.199C16.9182 16.9228 18.1 15.1489 18.1 12.9996V6.13386L12 3.95529L5.90001 6.13386Z" fill="#EBEBF5"/>
<path fill-rule="evenodd" clip-rule="evenodd" d="M16.1364 9.36321C16.4879 9.71469 16.4879 10.2845 16.1364 10.636L11.6364 15.136C11.2849 15.4875 10.7151 15.4875 10.3636 15.136L7.86361 12.636C7.51214 12.2845 7.51214 11.7147 7.86361 11.3632C8.21508 11.0117 8.78493 11.0117 9.1364 11.3632L11 13.2268L14.8636 9.36321C15.2151 9.01174 15.7849 9.01174 16.1364 9.36321Z" fill="#EBEBF5"/>
</svg>
