<svg width="120" height="120" viewBox="0 0 120 120" fill="none" xmlns="http://www.w3.org/2000/svg">
<rect width="120" height="120" rx="60" fill="#C3FF45"/>
<path d="M41.0316 68.5749L45.9867 73.4925L45.9916 73.4983C47.8148 75.3071 49.638 77.1161 51.4612 78.9252C51.7191 79.1812 51.977 79.4371 52.2349 79.6929C52.3263 79.7892 52.4366 79.8659 52.5589 79.9185C52.6813 79.971 52.8131 79.9983 52.9465 79.9987C52.9607 80 52.9749 79.9993 52.9894 80C53.0015 79.9993 53.014 80 53.0261 79.999C53.1598 79.9988 53.2921 79.9715 53.4148 79.9189C53.5375 79.8663 53.648 79.7894 53.7398 79.6929C55.563 77.8838 57.3863 76.0749 59.2097 74.266C59.4676 74.0101 59.7255 73.7543 59.9834 73.4988C61.5118 71.9824 63.0402 70.4659 64.5687 68.9493C67.6394 65.9027 70.7103 62.856 73.7813 59.8092L81.7482 51.9046C83.0431 50.6197 84.3845 49.367 85.6396 48.0438C85.6576 48.025 85.6766 48.0071 85.6949 47.9889C85.8906 47.789 86 47.5214 86 47.2429C86 46.9643 85.8906 46.6967 85.6949 46.4968C83.8715 44.6876 82.0482 42.8787 80.2251 41.0699C79.967 40.8142 79.709 40.5584 79.4513 40.3027C79.2497 40.1086 78.9797 40 78.6987 40C78.4177 40 78.1477 40.1086 77.9461 40.3027C76.8849 41.3554 75.8235 42.4084 74.7619 43.4617C72.214 45.9902 69.6659 48.5184 67.1175 51.0463C64.0465 54.0933 60.9756 57.1401 57.9048 60.1868C56.2656 61.8128 54.6266 63.439 52.9878 65.0653C50.371 62.4686 47.7543 59.8719 45.1377 57.2754C44.4431 56.586 43.7484 55.8967 43.0536 55.2076C42.8521 55.0135 42.5822 54.9049 42.3012 54.9049C42.0203 54.9049 41.7503 55.0135 41.5488 55.2076L36.0789 60.6345C35.8212 60.8902 35.5633 61.1461 35.3051 61.4022C35.1095 61.6021 35 61.8697 35 62.1483C35 62.4268 35.1095 62.6944 35.3051 62.8943C37.2143 64.7874 39.1231 66.681 41.0316 68.5749Z" fill="black"/>
</svg>
