<svg width="25" height="24" viewBox="0 0 25 24" fill="none" xmlns="http://www.w3.org/2000/svg">
<path d="M20.6235 3.18706C20.3634 3.19853 20.1211 3.27428 19.9078 3.3605C19.708 3.44087 18.9446 3.76829 17.7422 4.28394C16.5387 4.80003 14.9452 5.48418 13.2453 6.21519C9.8456 7.67719 6.02339 9.3229 4.06565 10.1652C3.99203 10.1968 3.73516 10.2789 3.46252 10.4917C3.18989 10.7046 2.90002 11.1456 2.90002 11.6371C2.90002 12.0333 3.08888 12.427 3.32659 12.6621C3.5643 12.8971 3.81582 13.0132 4.03127 13.1011C4.81301 13.4201 7.2375 14.4123 7.69534 14.5996C7.85646 15.0931 8.73402 17.7776 8.93752 18.4355C9.07168 18.8697 9.19938 19.1416 9.36565 19.3574C9.44878 19.4653 9.54542 19.5598 9.66252 19.6339C9.70933 19.6636 9.76066 19.6864 9.81252 19.7074L9.81565 19.7089C9.8276 19.7137 9.8379 19.7219 9.85002 19.7261C9.87289 19.7341 9.88819 19.7351 9.91878 19.7417C10.0406 19.7811 10.1637 19.8058 10.2735 19.8058C10.7416 19.8058 11.0281 19.548 11.0281 19.548L11.0453 19.5355L13.4531 17.4527L16.3735 20.2152C16.4146 20.2733 16.7981 20.7996 17.6438 20.7996C18.1459 20.7996 18.5443 20.5476 18.8 20.2792C19.0558 20.0109 19.2151 19.729 19.2828 19.3746V19.373C19.3462 19.0381 22.0375 5.22144 22.0375 5.22144L22.0328 5.24019C22.1116 4.88057 22.1323 4.54567 22.0453 4.21519C21.9584 3.8847 21.7293 3.56827 21.4453 3.398C21.1614 3.22776 20.8835 3.17559 20.6235 3.18706ZM20.4735 4.85894C20.4696 4.88228 20.4763 4.87054 20.4703 4.898L20.4688 4.90737L20.4672 4.91675C20.4672 4.91675 17.8092 18.5567 17.711 19.0761C17.7182 19.0369 17.6853 19.1149 17.6516 19.1621C17.6039 19.1292 17.5063 19.0871 17.5063 19.0871L17.4906 19.0699L13.5016 15.2964L10.6813 17.7339L11.5203 14.3746C11.5203 14.3746 16.7653 8.94525 17.0813 8.62925C17.3357 8.37645 17.3891 8.28832 17.3891 8.20112C17.3891 8.08432 17.3282 7.99956 17.1922 7.99956C17.0698 7.99956 16.9052 8.11856 16.8172 8.17456C15.6707 8.9054 10.6375 11.8389 8.38127 13.1511C8.02273 13.0044 5.53176 11.9847 4.68752 11.6402C4.69392 11.6374 4.69181 11.6384 4.69846 11.6355C6.65672 10.793 10.4773 9.14729 13.8766 7.6855C15.5762 6.9546 17.171 6.26993 18.3735 5.75425C19.5574 5.24651 20.3801 4.89707 20.4735 4.85894Z" fill="#C3FF45"/>
</svg>
