<svg width="20" height="20" viewBox="0 0 20 20" fill="none" xmlns="http://www.w3.org/2000/svg">
<g clip-path="url(#clip0_2162_4264)">
<path d="M4.69015 17.4527L2.46428 15.2269C2.00279 16.6047 3.31284 17.9141 4.69015 17.4527Z" fill="white"/>
<path d="M8.3421 17.2373L2.76275 11.6579C2.45761 11.3528 1.96288 11.3528 1.65773 11.6579C1.35259 11.9631 1.35259 12.4578 1.65773 12.763L7.23708 18.3423C7.54223 18.6475 8.03696 18.6475 8.3421 18.3423C8.64725 18.0372 8.64725 17.5424 8.3421 17.2373Z" fill="white"/>
<path d="M10.9533 6.4778L6.47798 10.9531L4.11645 8.5916C3.73502 8.21017 3.11661 8.21017 2.73519 8.5916C2.35376 8.97302 2.35376 9.59143 2.73519 9.97286L10.027 17.2647C10.4085 17.6461 11.0269 17.6461 11.4083 17.2647C11.7897 16.8833 11.7897 16.2649 11.4083 15.8834L8.9639 13.439L13.4392 8.96373L15.8836 11.4081C16.265 11.7895 16.8834 11.7895 17.2649 11.4081C17.6463 11.0267 17.6463 10.4083 17.2649 10.0269L9.97303 2.73501C9.59161 2.35359 8.97319 2.35359 8.59177 2.73501C8.21034 3.11644 8.21034 3.73485 8.59177 4.11628L10.9533 6.4778Z" fill="white"/>
<path d="M15.2271 2.46387L17.4529 4.68973C17.9144 3.31188 16.6044 2.00254 15.2271 2.46387Z" fill="white"/>
<path d="M18.3423 7.2368L12.763 1.65745C12.4579 1.35231 11.9631 1.35231 11.658 1.65745C11.3528 1.96259 11.3528 2.45733 11.658 2.76247L17.2373 8.34182C17.5425 8.64696 18.0372 8.64696 18.3423 8.34182C18.6475 8.03668 18.6475 7.54194 18.3423 7.2368Z" fill="white"/>
</g>
<defs>
<clipPath id="clip0_2162_4264">
<rect width="20" height="20" fill="white"/>
</clipPath>
</defs>
</svg>
