<svg width="28" height="28" viewBox="0 0 28 28" fill="none" xmlns="http://www.w3.org/2000/svg">
<path d="M23.7125 9.68343V7.5251C23.7125 6.66646 23.3714 5.84299 22.7643 5.23584C22.1571 4.62869 21.3336 4.2876 20.475 4.2876H17.2375M17.2375 23.7126H20.475C21.3336 23.7126 22.1571 23.3715 22.7643 22.7644C23.3714 22.1572 23.7125 21.3337 23.7125 20.4751V18.3168M4.28751 18.3168V20.4751C4.28751 21.3337 4.6286 22.1572 5.23575 22.7644C5.8429 23.3715 6.66637 23.7126 7.52501 23.7126H10.7625M10.7625 4.2876H7.52501C6.66637 4.2876 5.8429 4.62869 5.23575 5.23584C4.6286 5.84299 4.28751 6.66646 4.28751 7.5251V9.68343M3.20834 14.0001H24.7917" stroke="black" stroke-width="1.5" stroke-linecap="round" stroke-linejoin="round"/>
</svg>
