<svg width="28" height="28" viewBox="0 0 28 28" fill="none" xmlns="http://www.w3.org/2000/svg">
<path d="M25.5733 7.72333C25.4549 7.43826 25.2284 7.21172 24.9433 7.09333C24.8031 7.03355 24.6525 7.00184 24.5 7H18.6667C18.3572 7 18.0605 7.12292 17.8417 7.34171C17.6229 7.5605 17.5 7.85725 17.5 8.16667C17.5 8.47609 17.6229 8.77283 17.8417 8.99162C18.0605 9.21042 18.3572 9.33333 18.6667 9.33333H21.6883L15.1667 15.855L11.3283 12.005C11.2199 11.8956 11.0908 11.8089 10.9487 11.7496C10.8065 11.6904 10.654 11.6599 10.5 11.6599C10.346 11.6599 10.1935 11.6904 10.0513 11.7496C9.90916 11.8089 9.78012 11.8956 9.67167 12.005L2.67167 19.005C2.56232 19.1135 2.47552 19.2425 2.41629 19.3847C2.35706 19.5268 2.32657 19.6793 2.32657 19.8333C2.32657 19.9873 2.35706 20.1398 2.41629 20.282C2.47552 20.4242 2.56232 20.5532 2.67167 20.6617C2.78012 20.771 2.90916 20.8578 3.05133 20.917C3.1935 20.9763 3.34599 21.0068 3.5 21.0068C3.65401 21.0068 3.8065 20.9763 3.94867 20.917C4.09084 20.8578 4.21988 20.771 4.32833 20.6617L10.5 14.4783L14.3383 18.3283C14.4468 18.4377 14.5758 18.5245 14.718 18.5837C14.8602 18.6429 15.0127 18.6734 15.1667 18.6734C15.3207 18.6734 15.4732 18.6429 15.6153 18.5837C15.7575 18.5245 15.8865 18.4377 15.995 18.3283L23.3333 10.9783V14C23.3333 14.3094 23.4562 14.6062 23.675 14.825C23.8938 15.0437 24.1906 15.1667 24.5 15.1667C24.8094 15.1667 25.1062 15.0437 25.325 14.825C25.5438 14.6062 25.6667 14.3094 25.6667 14V8.16667C25.6648 8.01421 25.6331 7.86359 25.5733 7.72333Z" fill="#868686"/>
</svg>
